<?xml version="1.0" encoding="UTF-8"?>
<svg width="872px" height="512px" viewBox="0 0 872 512" version="1.1" xmlns="http://www.w3.org/2000/svg" xmlns:xlink="http://www.w3.org/1999/xlink">
    <title>Three</title>
    <g id="Three" stroke="none" stroke-width="1" fill="none" fill-rule="evenodd">
        <g id="injection" transform="translate(-0.000000, 0.000000)" fill="#000000" fill-rule="nonzero">
            <path d="M509.39725,61.61425 L495.67925,47.89625 C495.24625,46.90425 494.61525,45.96425 493.77725,45.12625 L463.40425,14.75325 C462.56625,13.91525 461.62525,13.28425 460.63425,12.85125 L450.38625,2.60325 C446.91525,-0.86775 441.70825,-0.86775 438.23725,2.60325 C434.76625,6.07425 434.76625,11.28125 438.23725,14.75225 L444.74525,21.26025 L401.79025,64.21725 L382.69825,45.12625 C379.22725,41.65525 374.02025,41.65525 370.54925,45.12625 C367.07825,48.59725 367.07825,53.80425 370.54925,57.27525 L377.04825,63.77425 L124.96325,315.01025 C123.22725,316.74625 122.36025,318.48125 122.36025,321.08525 C122.36025,323.68825 123.22825,325.42425 124.96325,327.16025 L137.11225,339.30925 L112.81425,363.60725 C109.34325,367.07825 107.60725,371.41725 107.60725,376.62425 C107.60725,381.58625 109.20225,385.75025 112.35425,389.13525 L2.60325,497.24725 C-0.86775,500.71825 -0.86775,505.92525 2.60325,509.39625 C4.33925,511.13225 6.07525,512.00025 8.67825,512.00025 C10.41425,512.00025 13.01725,511.13225 14.75325,509.39725 L124.50425,401.28425 C127.96725,404.50325 132.93425,406.12925 137.11225,406.12925 C142.31925,406.12925 146.65825,404.39325 149.26125,400.05425 L173.55925,375.75625 L186.57625,388.77325 C188.31225,390.50925 190.04725,391.37625 192.65125,391.37625 C194.38725,391.37625 196.99025,390.50825 198.72625,388.77325 L450.81125,137.53625 L456.46125,143.18625 C458.19725,144.92225 459.93225,145.78925 462.53625,145.78925 C465.14025,145.78925 466.87525,145.78925 468.61125,143.18625 C472.08225,139.71525 472.08225,134.50825 468.61125,131.03725 L444.31325,106.73925 L487.26925,63.78325 L497.24925,73.76325 C498.98525,75.49925 500.72025,76.36625 503.32425,76.36625 C505.06025,76.36625 507.66325,75.49825 509.39925,73.76325 C512.86825,70.29225 512.86825,65.08525 509.39725,61.61425 Z M137.98025,388.77325 L137.11225,388.77325 L125.83125,377.49225 L125.83125,376.62425 L150.12925,352.32625 L162.27825,364.47525 L137.98025,388.77325 Z M192.65125,371.41725 L181.65225,360.41825 C181.22025,359.37225 180.55225,358.45025 179.63425,357.53225 L155.33625,333.23425 C154.49825,332.39625 153.55725,331.76525 152.56625,331.33225 L143.18725,321.95325 L204.80125,260.33925 L303.73025,260.33925 L192.65125,371.41725 Z M321.08525,242.98325 L222.15625,242.98325 L290.71225,174.42725 L308.93625,192.65125 C310.67225,194.38725 312.40725,195.25425 315.01125,195.25425 C317.61425,195.25425 319.35025,194.38625 321.08625,192.65125 C324.55725,189.18025 324.55725,183.97325 321.08625,180.50225 L302.86225,162.27825 L315.44525,149.69525 L334.10325,168.35325 C335.83925,170.08925 337.57425,170.95625 340.17825,170.95625 C341.91425,170.95625 344.51725,170.08825 346.25325,168.35325 C349.72425,164.88225 349.72425,159.67525 346.25325,156.20425 L327.59525,137.54625 L340.17825,124.96325 L358.40225,143.18725 C360.13825,144.92325 361.87325,145.79025 364.47725,145.79025 C366.21325,145.79025 368.81625,145.79025 370.55225,143.18725 C374.02325,139.71625 374.02325,134.50925 370.55225,131.03825 L352.32825,112.81425 L364.47725,100.66525 L382.70125,118.88925 C384.43725,120.62525 386.17225,121.49225 388.77625,121.49225 C391.38025,121.49225 393.11525,120.62425 394.85125,118.88925 C398.32225,115.41825 398.32225,110.21125 394.85125,106.74025 L376.62725,88.51625 L388.77625,76.36725 L438.24025,125.83125 L321.08525,242.98325 Z M431.72425,94.15225 L413.50025,75.92825 L455.59325,32.97625 L473.81725,51.20025 L431.72425,94.15225 Z" id="Shape"></path>
        </g>
        <g id="injection" transform="translate(180.000000, 0.000000)" fill="#000000" fill-rule="nonzero">
            <path d="M509.39725,61.61425 L495.67925,47.89625 C495.24625,46.90425 494.61525,45.96425 493.77725,45.12625 L463.40425,14.75325 C462.56625,13.91525 461.62525,13.28425 460.63425,12.85125 L450.38625,2.60325 C446.91525,-0.86775 441.70825,-0.86775 438.23725,2.60325 C434.76625,6.07425 434.76625,11.28125 438.23725,14.75225 L444.74525,21.26025 L401.79025,64.21725 L382.69825,45.12625 C379.22725,41.65525 374.02025,41.65525 370.54925,45.12625 C367.07825,48.59725 367.07825,53.80425 370.54925,57.27525 L377.04825,63.77425 L124.96325,315.01025 C123.22725,316.74625 122.36025,318.48125 122.36025,321.08525 C122.36025,323.68825 123.22825,325.42425 124.96325,327.16025 L137.11225,339.30925 L112.81425,363.60725 C109.34325,367.07825 107.60725,371.41725 107.60725,376.62425 C107.60725,381.58625 109.20225,385.75025 112.35425,389.13525 L2.60325,497.24725 C-0.86775,500.71825 -0.86775,505.92525 2.60325,509.39625 C4.33925,511.13225 6.07525,512.00025 8.67825,512.00025 C10.41425,512.00025 13.01725,511.13225 14.75325,509.39725 L124.50425,401.28425 C127.96725,404.50325 132.93425,406.12925 137.11225,406.12925 C142.31925,406.12925 146.65825,404.39325 149.26125,400.05425 L173.55925,375.75625 L186.57625,388.77325 C188.31225,390.50925 190.04725,391.37625 192.65125,391.37625 C194.38725,391.37625 196.99025,390.50825 198.72625,388.77325 L450.81125,137.53625 L456.46125,143.18625 C458.19725,144.92225 459.93225,145.78925 462.53625,145.78925 C465.14025,145.78925 466.87525,145.78925 468.61125,143.18625 C472.08225,139.71525 472.08225,134.50825 468.61125,131.03725 L444.31325,106.73925 L487.26925,63.78325 L497.24925,73.76325 C498.98525,75.49925 500.72025,76.36625 503.32425,76.36625 C505.06025,76.36625 507.66325,75.49825 509.39925,73.76325 C512.86825,70.29225 512.86825,65.08525 509.39725,61.61425 Z M137.98025,388.77325 L137.11225,388.77325 L125.83125,377.49225 L125.83125,376.62425 L150.12925,352.32625 L162.27825,364.47525 L137.98025,388.77325 Z M192.65125,371.41725 L181.65225,360.41825 C181.22025,359.37225 180.55225,358.45025 179.63425,357.53225 L155.33625,333.23425 C154.49825,332.39625 153.55725,331.76525 152.56625,331.33225 L143.18725,321.95325 L204.80125,260.33925 L303.73025,260.33925 L192.65125,371.41725 Z M321.08525,242.98325 L222.15625,242.98325 L290.71225,174.42725 L308.93625,192.65125 C310.67225,194.38725 312.40725,195.25425 315.01125,195.25425 C317.61425,195.25425 319.35025,194.38625 321.08625,192.65125 C324.55725,189.18025 324.55725,183.97325 321.08625,180.50225 L302.86225,162.27825 L315.44525,149.69525 L334.10325,168.35325 C335.83925,170.08925 337.57425,170.95625 340.17825,170.95625 C341.91425,170.95625 344.51725,170.08825 346.25325,168.35325 C349.72425,164.88225 349.72425,159.67525 346.25325,156.20425 L327.59525,137.54625 L340.17825,124.96325 L358.40225,143.18725 C360.13825,144.92325 361.87325,145.79025 364.47725,145.79025 C366.21325,145.79025 368.81625,145.79025 370.55225,143.18725 C374.02325,139.71625 374.02325,134.50925 370.55225,131.03825 L352.32825,112.81425 L364.47725,100.66525 L382.70125,118.88925 C384.43725,120.62525 386.17225,121.49225 388.77625,121.49225 C391.38025,121.49225 393.11525,120.62425 394.85125,118.88925 C398.32225,115.41825 398.32225,110.21125 394.85125,106.74025 L376.62725,88.51625 L388.77625,76.36725 L438.24025,125.83125 L321.08525,242.98325 Z M431.72425,94.15225 L413.50025,75.92825 L455.59325,32.97625 L473.81725,51.20025 L431.72425,94.15225 Z" id="Shape"></path>
        </g>
        <g id="injection-copy" transform="translate(360.000000, 0.000000)" fill="#000000" fill-rule="nonzero">
            <path d="M509.39725,61.61425 L495.67925,47.89625 C495.24625,46.90425 494.61525,45.96425 493.77725,45.12625 L463.40425,14.75325 C462.56625,13.91525 461.62525,13.28425 460.63425,12.85125 L450.38625,2.60325 C446.91525,-0.86775 441.70825,-0.86775 438.23725,2.60325 C434.76625,6.07425 434.76625,11.28125 438.23725,14.75225 L444.74525,21.26025 L401.79025,64.21725 L382.69825,45.12625 C379.22725,41.65525 374.02025,41.65525 370.54925,45.12625 C367.07825,48.59725 367.07825,53.80425 370.54925,57.27525 L377.04825,63.77425 L124.96325,315.01025 C123.22725,316.74625 122.36025,318.48125 122.36025,321.08525 C122.36025,323.68825 123.22825,325.42425 124.96325,327.16025 L137.11225,339.30925 L112.81425,363.60725 C109.34325,367.07825 107.60725,371.41725 107.60725,376.62425 C107.60725,381.58625 109.20225,385.75025 112.35425,389.13525 L2.60325,497.24725 C-0.86775,500.71825 -0.86775,505.92525 2.60325,509.39625 C4.33925,511.13225 6.07525,512.00025 8.67825,512.00025 C10.41425,512.00025 13.01725,511.13225 14.75325,509.39725 L124.50425,401.28425 C127.96725,404.50325 132.93425,406.12925 137.11225,406.12925 C142.31925,406.12925 146.65825,404.39325 149.26125,400.05425 L173.55925,375.75625 L186.57625,388.77325 C188.31225,390.50925 190.04725,391.37625 192.65125,391.37625 C194.38725,391.37625 196.99025,390.50825 198.72625,388.77325 L450.81125,137.53625 L456.46125,143.18625 C458.19725,144.92225 459.93225,145.78925 462.53625,145.78925 C465.14025,145.78925 466.87525,145.78925 468.61125,143.18625 C472.08225,139.71525 472.08225,134.50825 468.61125,131.03725 L444.31325,106.73925 L487.26925,63.78325 L497.24925,73.76325 C498.98525,75.49925 500.72025,76.36625 503.32425,76.36625 C505.06025,76.36625 507.66325,75.49825 509.39925,73.76325 C512.86825,70.29225 512.86825,65.08525 509.39725,61.61425 Z M137.98025,388.77325 L137.11225,388.77325 L125.83125,377.49225 L125.83125,376.62425 L150.12925,352.32625 L162.27825,364.47525 L137.98025,388.77325 Z M192.65125,371.41725 L181.65225,360.41825 C181.22025,359.37225 180.55225,358.45025 179.63425,357.53225 L155.33625,333.23425 C154.49825,332.39625 153.55725,331.76525 152.56625,331.33225 L143.18725,321.95325 L204.80125,260.33925 L303.73025,260.33925 L192.65125,371.41725 Z M321.08525,242.98325 L222.15625,242.98325 L290.71225,174.42725 L308.93625,192.65125 C310.67225,194.38725 312.40725,195.25425 315.01125,195.25425 C317.61425,195.25425 319.35025,194.38625 321.08625,192.65125 C324.55725,189.18025 324.55725,183.97325 321.08625,180.50225 L302.86225,162.27825 L315.44525,149.69525 L334.10325,168.35325 C335.83925,170.08925 337.57425,170.95625 340.17825,170.95625 C341.91425,170.95625 344.51725,170.08825 346.25325,168.35325 C349.72425,164.88225 349.72425,159.67525 346.25325,156.20425 L327.59525,137.54625 L340.17825,124.96325 L358.40225,143.18725 C360.13825,144.92325 361.87325,145.79025 364.47725,145.79025 C366.21325,145.79025 368.81625,145.79025 370.55225,143.18725 C374.02325,139.71625 374.02325,134.50925 370.55225,131.03825 L352.32825,112.81425 L364.47725,100.66525 L382.70125,118.88925 C384.43725,120.62525 386.17225,121.49225 388.77625,121.49225 C391.38025,121.49225 393.11525,120.62425 394.85125,118.88925 C398.32225,115.41825 398.32225,110.21125 394.85125,106.74025 L376.62725,88.51625 L388.77625,76.36725 L438.24025,125.83125 L321.08525,242.98325 Z M431.72425,94.15225 L413.50025,75.92825 L455.59325,32.97625 L473.81725,51.20025 L431.72425,94.15225 Z" id="Shape"></path>
        </g>
    </g>
</svg>