<?xml version="1.0" standalone="no"?>
<!DOCTYPE svg PUBLIC "-//W3C//DTD SVG 20010904//EN"
 "http://www.w3.org/TR/2001/REC-SVG-20010904/DTD/svg10.dtd">
<svg version="1.0" xmlns="http://www.w3.org/2000/svg"
 width="400.000000pt" height="300.000000pt" viewBox="0 0 400.000000 300.000000"
 preserveAspectRatio="xMidYMid meet">

<g transform="translate(0.000000,300.000000) scale(0.100000,-0.100000)"
fill="#000000" stroke="none">
<path d="M3700 2065 l0 -145 140 0 140 0 0 145 0 145 -140 0 -140 0 0 -145z"/>
<path d="M28 1774 c-5 -4 -8 -153 -8 -331 l0 -323 153 0 c207 0 271 17 355 94
56 52 85 119 90 212 6 118 -15 182 -81 249 -81 81 -134 97 -337 102 -91 3
-168 2 -172 -3z m337 -183 c16 -9 40 -33 53 -52 20 -29 23 -44 20 -101 -3 -61
-7 -71 -38 -103 -38 -39 -81 -55 -152 -55 l-48 0 0 171 0 172 67 -7 c38 -4 81
-15 98 -25z"/>
<path d="M833 1622 c-69 -25 -117 -63 -150 -120 -24 -41 -28 -58 -28 -127 0
-117 45 -194 141 -240 48 -23 160 -31 217 -16 196 55 256 310 105 446 -52 47
-94 65 -171 71 -45 3 -76 0 -114 -14z m132 -146 c80 -34 87 -169 10 -204 -57
-26 -111 -8 -140 48 -30 59 -8 131 48 155 40 18 41 18 82 1z"/>
<path d="M2225 1621 c-22 -10 -47 -26 -55 -36 -14 -17 -15 -16 -20 11 l-5 29
-177 3 -178 2 -6 -27 c-4 -16 -19 -73 -34 -128 l-27 -100 -31 100 c-17 55 -34
112 -38 128 -6 27 -7 27 -83 27 l-76 0 -34 -116 c-19 -63 -38 -117 -41 -119
-4 -2 -20 49 -37 113 l-29 117 -87 3 c-49 2 -87 -1 -87 -6 0 -9 34 -124 116
-389 l35 -113 79 0 78 0 38 120 c20 66 40 120 43 120 4 0 23 -54 44 -120 l37
-120 80 0 79 0 25 83 c88 287 82 272 107 272 l24 0 3 -177 2 -178 90 0 90 0 0
158 c0 153 1 159 23 180 30 29 62 28 92 -3 24 -24 25 -28 25 -180 l0 -155 90
0 90 0 0 193 c0 180 -1 196 -22 237 -40 79 -137 110 -223 71z"/>
<path d="M2690 1631 c-73 -23 -136 -78 -166 -149 -9 -21 -17 -67 -17 -107 -2
-121 58 -213 164 -250 51 -18 161 -19 212 -1 46 17 107 62 107 81 0 7 -20 30
-45 50 l-44 37 -27 -21 c-31 -24 -83 -36 -120 -27 -27 7 -74 48 -74 65 0 7 62
12 168 13 l167 3 -2 63 c-2 78 -39 160 -88 198 -60 46 -166 66 -235 45z m105
-133 c28 -13 60 -62 50 -78 -3 -6 -42 -10 -86 -10 -69 0 -79 2 -79 18 0 24 28
62 54 72 29 12 31 12 61 -2z"/>
<path d="M3333 1629 c-17 -5 -48 -28 -67 -51 l-36 -42 0 47 0 47 -85 0 -85 0
0 -255 0 -255 85 0 85 0 0 80 c0 165 34 232 124 245 l47 7 -3 92 c-3 99 -6
102 -65 85z"/>
<path d="M304 930 c0 -52 1 -74 3 -47 2 26 2 68 0 95 -2 26 -3 4 -3 -48z"/>
<path d="M993 930 c0 -72 1 -84 6 -47 7 49 23 69 51 64 11 -1 16 -17 18 -55 4
-66 22 -69 22 -3 0 57 -16 76 -59 68 -28 -6 -30 -4 -34 31 -2 20 -4 -6 -4 -58z"/>
<path d="M20 925 c0 -50 4 -85 10 -85 6 0 10 16 10 35 0 48 31 48 62 0 29 -44
47 -46 19 -2 -20 33 -20 33 -1 50 45 38 13 87 -56 87 l-44 0 0 -85z m99 41 c4
-23 -24 -46 -56 -46 -20 0 -23 5 -23 36 0 35 1 35 37 32 28 -2 39 -8 42 -22z"/>
<path d="M480 976 c0 -8 -6 -17 -12 -19 -10 -4 -10 -6 0 -6 8 -1 12 -18 12
-50 0 -53 21 -84 42 -63 9 9 8 12 -5 12 -25 0 -25 96 1 103 16 4 16 5 0 6 -10
0 -18 8 -18 16 0 8 -4 15 -10 15 -5 0 -10 -6 -10 -14z"/>
<path d="M1950 978 c0 -9 -6 -19 -12 -21 -10 -4 -10 -6 0 -6 8 -1 12 -19 12
-55 0 -54 16 -76 43 -59 6 4 2 10 -11 14 -18 7 -22 16 -22 49 0 33 4 42 23 50
16 6 17 9 5 9 -9 1 -22 9 -27 19 -9 15 -10 15 -11 0z"/>
<path d="M182 948 c-18 -24 -23 -56 -11 -82 16 -34 44 -42 75 -21 31 20 25 32
-5 13 -24 -15 -54 -2 -59 26 -3 13 5 16 42 16 47 0 54 7 36 41 -12 22 -62 26
-78 7z m66 -20 c3 -15 -4 -18 -32 -18 -38 0 -44 8 -24 28 17 17 52 11 56 -10z"/>
<path d="M360 945 c-14 -17 0 -21 17 -4 15 15 43 4 43 -16 0 -10 -10 -15 -30
-15 -20 0 -33 -7 -41 -22 -10 -18 -8 -24 11 -40 13 -11 30 -16 37 -13 8 3 21
5 29 5 18 0 20 90 2 108 -17 17 -53 15 -68 -3z m58 -73 c3 -18 -1 -22 -23 -22
-29 0 -45 27 -24 41 22 14 44 6 47 -19z"/>
<path d="M563 900 c0 -36 2 -50 4 -32 2 17 2 47 0 65 -2 17 -4 3 -4 -33z"/>
<path d="M616 938 c-19 -27 -20 -39 -4 -72 15 -33 43 -42 73 -22 19 13 25 25
25 54 0 21 -5 43 -12 50 -20 20 -65 14 -82 -10z m78 -21 c7 -19 7 -34 0 -45
-25 -39 -74 -20 -74 27 0 55 57 69 74 18z"/>
<path d="M740 899 c0 -33 4 -59 10 -59 6 0 10 20 10 44 0 88 60 88 71 0 6 -49
6 -49 5 11 l-1 60 -47 1 -48 2 0 -59z"/>
<path d="M875 939 c-8 -24 -7 -26 36 -47 18 -10 33 -21 33 -27 1 -15 -43 -18
-60 -5 -10 9 -14 9 -14 1 0 -21 45 -34 69 -21 33 17 24 52 -16 64 -18 5 -33
15 -33 23 0 19 29 28 43 14 17 -17 31 -13 17 4 -19 23 -67 19 -75 -6z"/>
<path d="M1133 900 c0 -36 2 -50 4 -32 2 17 2 47 0 65 -2 17 -4 3 -4 -33z"/>
<path d="M1182 870 c0 -47 3 -72 5 -57 4 25 8 28 29 23 55 -14 92 49 60 100
-14 20 -24 24 -56 22 l-40 -3 2 -85z m77 66 c31 -37 -9 -103 -46 -80 -37 23
-24 94 17 94 10 0 23 -6 29 -14z"/>
<path d="M1317 953 c-18 -17 -5 -45 28 -59 40 -16 47 -44 12 -44 -13 0 -28 5
-35 12 -9 9 -12 9 -12 0 0 -21 44 -36 69 -23 36 20 25 52 -23 68 -17 5 -32 15
-34 21 -6 18 28 27 49 14 26 -16 34 -15 19 3 -13 15 -61 21 -73 8z"/>
<path d="M1497 942 c-9 -10 -17 -31 -17 -45 0 -27 30 -67 51 -67 18 0 49 20
49 32 0 7 -5 7 -14 -2 -8 -6 -25 -10 -38 -8 -20 3 -23 9 -23 42 0 51 24 69 56
41 21 -20 21 -20 18 0 -6 28 -59 33 -82 7z"/>
<path d="M1610 898 c0 -32 4 -58 10 -58 6 0 10 20 10 44 0 34 5 48 21 60 21
14 21 15 -10 14 l-31 -1 0 -59z"/>
<path d="M1702 948 c-7 -7 -12 -29 -12 -50 0 -29 6 -41 25 -54 26 -17 60 -12
69 11 7 18 2 19 -24 3 -15 -10 -25 -10 -38 -2 -31 20 -20 39 26 42 44 3 56 24
30 50 -15 15 -61 15 -76 0z m68 -18 c10 -18 8 -20 -30 -20 -38 0 -40 2 -30 20
6 11 19 20 30 20 11 0 24 -9 30 -20z"/>
<path d="M1825 949 c-4 -6 -4 -13 0 -17 3 -3 10 0 14 7 12 19 46 9 49 -15 3
-18 -1 -20 -26 -16 -33 4 -57 -18 -47 -46 7 -23 32 -32 69 -25 23 5 26 10 26
45 0 55 -15 78 -50 78 -16 0 -32 -5 -35 -11z m60 -74 c0 -22 -31 -33 -47 -17
-17 17 -1 44 24 40 15 -2 23 -10 23 -23z"/>
<path d="M2033 900 c0 -36 2 -50 4 -32 2 17 2 47 0 65 -2 17 -4 3 -4 -33z"/>
<path d="M2080 898 c0 -32 4 -58 10 -58 6 0 10 22 10 49 0 41 4 51 20 56 31
10 40 -2 40 -56 0 -27 5 -49 10 -49 15 0 12 96 -3 109 -8 6 -30 10 -50 9 l-37
-1 0 -59z"/>
<path d="M2222 948 c-17 -17 -15 -83 3 -98 8 -7 29 -10 45 -8 23 4 30 1 28
-10 -5 -26 -35 -38 -58 -24 -27 16 -35 15 -20 -3 15 -18 61 -20 78 -3 7 7 12
41 12 83 l0 71 -38 2 c-20 2 -43 -3 -50 -10z m66 -10 c7 -7 12 -24 12 -38 0
-48 -49 -69 -70 -31 -14 27 -13 47 6 65 19 19 36 20 52 4z"/>
<path d="M2417 954 c-18 -18 -5 -46 28 -60 19 -8 35 -19 35 -24 0 -18 -32 -24
-52 -11 -22 14 -31 11 -20 -6 13 -21 58 -26 76 -8 23 23 17 37 -27 58 -20 10
-37 23 -37 28 0 17 32 23 52 10 16 -10 19 -10 16 1 -5 14 -59 23 -71 12z"/>
<path d="M2520 923 c0 -79 16 -97 70 -86 30 5 30 6 28 67 l-1 61 -6 -49 c-6
-51 -26 -74 -55 -63 -12 5 -16 19 -16 57 0 27 -4 50 -10 50 -5 0 -10 -17 -10
-37z"/>
<path d="M2667 942 c-9 -10 -17 -31 -17 -45 0 -27 30 -67 51 -67 18 0 49 20
49 32 0 7 -5 7 -14 -2 -8 -6 -25 -10 -38 -8 -20 3 -23 9 -23 42 0 51 24 69 56
41 21 -20 21 -20 18 0 -6 28 -59 33 -82 7z"/>
<path d="M2793 948 c-19 -24 -24 -55 -12 -82 16 -34 44 -42 75 -21 31 20 25
32 -5 13 -28 -17 -55 -1 -59 36 -6 49 44 77 68 39 10 -16 10 -16 8 2 -4 24
-59 33 -75 13z"/>
<path d="M2912 948 c-7 -7 -12 -29 -12 -50 0 -29 6 -41 25 -54 26 -17 60 -12
69 11 7 18 2 19 -24 3 -15 -10 -25 -10 -38 -2 -31 20 -20 39 26 42 44 3 56 24
30 50 -15 15 -61 15 -76 0z m68 -18 c10 -18 8 -20 -30 -20 -38 0 -40 2 -30 20
6 11 19 20 30 20 11 0 24 -9 30 -20z"/>
<path d="M3037 954 c-18 -18 -5 -46 28 -60 19 -8 35 -19 35 -24 0 -18 -32 -24
-52 -11 -26 16 -34 8 -13 -13 29 -29 75 -17 75 21 0 18 -9 28 -35 39 -19 8
-35 19 -35 24 0 18 32 24 52 11 16 -10 19 -10 16 1 -5 14 -59 23 -71 12z"/>
<path d="M3147 954 c-18 -18 -5 -46 28 -60 40 -16 47 -44 12 -44 -13 0 -28 5
-35 12 -6 6 -14 9 -18 6 -11 -11 44 -40 65 -33 21 6 34 31 25 47 -4 5 -22 16
-40 24 -19 8 -34 19 -34 24 0 18 32 24 52 11 16 -10 19 -10 16 1 -5 14 -59 23
-71 12z"/>
</g>
</svg>
