<?xml version="1.0" encoding="iso-8859-1"?>
<!-- Generator: Adobe Illustrator 19.0.0, SVG Export Plug-In . SVG Version: 6.00 Build 0)  -->
<svg version="1.1" id="Layer_1" xmlns="http://www.w3.org/2000/svg" xmlns:xlink="http://www.w3.org/1999/xlink" x="0px" y="0px"
	 viewBox="0 0 512 512" style="enable-background:new 0 0 512 512;" xml:space="preserve">
<g transform="translate(0 1)">
	<g>
		<path d="M509.397,60.614l-13.718-13.718c-0.433-0.992-1.064-1.932-1.902-2.77l-30.373-30.373c-0.838-0.838-1.779-1.469-2.77-1.902
			L450.386,1.603c-3.471-3.471-8.678-3.471-12.149,0s-3.471,8.678,0,12.149l6.508,6.508L401.79,63.217l-19.092-19.091
			c-3.471-3.471-8.678-3.471-12.149,0s-3.471,8.678,0,12.149l6.499,6.499L124.963,314.01c-1.736,1.736-2.603,3.471-2.603,6.075
			c0,2.603,0.868,4.339,2.603,6.075l12.149,12.149l-24.298,24.298c-3.471,3.471-5.207,7.81-5.207,13.017
			c0,4.962,1.595,9.126,4.747,12.511L2.603,496.247c-3.471,3.471-3.471,8.678,0,12.149C4.339,510.132,6.075,511,8.678,511
			c1.736,0,4.339-0.868,6.075-2.603l109.751-108.113c3.463,3.219,8.43,4.845,12.608,4.845c5.207,0,9.546-1.736,12.149-6.075
			l24.298-24.298l13.017,13.017c1.736,1.736,3.471,2.603,6.075,2.603c1.736,0,4.339-0.868,6.075-2.603l252.085-251.237l5.65,5.65
			c1.736,1.736,3.471,2.603,6.075,2.603s4.339,0,6.075-2.603c3.471-3.471,3.471-8.678,0-12.149l-24.298-24.298l42.956-42.956
			l9.98,9.98c1.736,1.736,3.471,2.603,6.075,2.603c1.736,0,4.339-0.868,6.075-2.603C512.868,69.292,512.868,64.085,509.397,60.614z
			 M137.98,387.773h-0.868l-11.281-11.281v-0.868l24.298-24.298l12.149,12.149L137.98,387.773z M192.651,370.417l-10.999-10.999
			c-0.432-1.046-1.1-1.968-2.018-2.886l-24.298-24.298c-0.838-0.838-1.779-1.469-2.77-1.902l-9.379-9.379l61.614-61.614h98.929
			L192.651,370.417z M321.085,241.983h-98.929l68.556-68.556l18.224,18.224c1.736,1.736,3.471,2.603,6.075,2.603
			c2.603,0,4.339-0.868,6.075-2.603c3.471-3.471,3.471-8.678,0-12.149l-18.224-18.224l12.583-12.583l18.658,18.658
			c1.736,1.736,3.471,2.603,6.075,2.603c1.736,0,4.339-0.868,6.075-2.603c3.471-3.471,3.471-8.678,0-12.149l-18.658-18.658
			l12.583-12.583l18.224,18.224c1.736,1.736,3.471,2.603,6.075,2.603c1.736,0,4.339,0,6.075-2.603c3.471-3.471,3.471-8.678,0-12.149
			l-18.224-18.224l12.149-12.149l18.224,18.224c1.736,1.736,3.471,2.603,6.075,2.603s4.339-0.868,6.075-2.603
			c3.471-3.471,3.471-8.678,0-12.149l-18.224-18.224l12.149-12.149l49.464,49.464L321.085,241.983z M431.724,93.152l-18.224-18.224
			l42.093-42.952L473.817,50.2L431.724,93.152z"/>
	</g>
</g>
<g>
</g>
<g>
</g>
<g>
</g>
<g>
</g>
<g>
</g>
<g>
</g>
<g>
</g>
<g>
</g>
<g>
</g>
<g>
</g>
<g>
</g>
<g>
</g>
<g>
</g>
<g>
</g>
<g>
</g>
</svg>
